<svg width="261" height="172" viewBox="0 0 261 172" fill="none" xmlns="http://www.w3.org/2000/svg">
<g filter="url(#filter0_ii_1742_3960)">
<path d="M195.651 58.6737C231.631 79.4473 231.631 113.128 195.651 133.901C159.67 154.675 101.333 154.675 65.3522 133.901C29.3714 113.128 29.3714 79.4473 65.3523 58.6737C101.333 37.9002 159.67 37.9002 195.651 58.6737Z" fill="url(#paint0_linear_1742_3960)"/>
<path d="M172.396 72.0996C195.534 85.4583 195.534 107.117 172.396 120.476C149.258 133.834 111.744 133.834 88.6066 120.476C65.4688 107.117 65.4688 85.4583 88.6066 72.0996C111.744 58.741 149.258 58.741 172.396 72.0996Z" fill="#F5F5F5"/>
</g>
<rect width="43.7158" height="43.7158" rx="20" transform="matrix(0.866025 -0.5 0.866025 0.5 91.8965 78.7874)" fill="url(#paint1_linear_1742_3960)" fill-opacity="0.8"/>
<rect width="43.7158" height="43.7158" rx="20" transform="matrix(0.866025 -0.5 0.866025 0.5 84.2734 63.0344)" fill="url(#paint2_linear_1742_3960)" fill-opacity="0.8"/>
<rect width="43.7158" height="43.7158" rx="20" transform="matrix(0.866025 -0.5 0.866025 0.5 91.8965 45.25)" fill="url(#paint3_linear_1742_3960)" fill-opacity="0.8"/>
<path fill-rule="evenodd" clip-rule="evenodd" d="M102.043 76.4861C102.04 80.1075 104.431 83.7294 109.217 86.4925L112.435 88.3504C122.001 93.8732 137.51 93.8732 147.076 88.3504L150.294 86.4925C155.08 83.7294 157.471 80.1075 157.469 76.4861H164.783V94.7512H157.172C157.112 98.2921 154.714 101.823 149.977 104.524L147.101 106.164C137.506 111.636 121.949 111.636 112.354 106.164L109.479 104.524C104.741 101.823 102.343 98.2921 102.284 94.7512H94.8399L94.7227 76.4861H102.043Z" fill="url(#paint4_linear_1742_3960)"/>
<path fill-rule="evenodd" clip-rule="evenodd" d="M102.043 59.4626C102.04 63.0843 104.431 66.7066 109.217 69.4698L112.435 71.3277C122.001 76.8506 137.51 76.8506 147.076 71.3277L150.294 69.4698C155.08 66.7066 157.472 63.0843 157.468 59.4626H164.783V77.7264H157.172C157.112 81.2668 154.713 84.7968 149.977 87.4981L147.101 89.138C137.506 94.6098 121.949 94.6098 112.354 89.138L109.479 87.4981C104.742 84.7968 102.343 81.2668 102.284 77.7264H94.8399L94.7227 59.4626H102.043Z" fill="url(#paint5_linear_1742_3960)"/>
<path fill-rule="evenodd" clip-rule="evenodd" d="M102.043 42.9475C102.04 46.5689 104.431 50.1907 109.217 52.9537L112.435 54.8116C122.001 60.3345 137.51 60.3345 147.076 54.8116L150.294 52.9537C155.08 50.1907 157.471 46.5689 157.468 42.9475H164.783V61.2125H157.172C157.113 64.7534 154.714 68.284 149.977 70.9857L147.101 72.6255C137.506 78.0973 121.949 78.0973 112.354 72.6255L109.479 70.9857C104.741 68.2839 102.343 64.7534 102.284 61.2125H94.8399L94.7227 42.9475H102.043Z" fill="url(#paint6_linear_1742_3960)"/>
<path fill-rule="evenodd" clip-rule="evenodd" d="M102.482 95.9199C102.482 95.9202 102.482 95.9205 102.482 95.9208C102.491 96.3941 102.049 96.5298 101.494 96.224C100.938 95.9181 100.481 95.2865 100.471 94.8133C100.471 94.8094 100.471 94.8055 100.471 94.8017L100.298 86.2434L100.298 86.2434C100.289 85.7707 100.732 85.6353 101.287 85.941C101.842 86.2469 102.3 86.8785 102.309 87.3517L102.31 87.3652L102.482 95.92L102.482 95.9199Z" fill="url(#paint7_linear_1742_3960)"/>
<path fill-rule="evenodd" clip-rule="evenodd" d="M100.471 77.7869L100.298 69.2179L100.298 69.2179C100.29 68.7457 100.732 68.6104 101.287 68.916C101.842 69.2219 102.3 69.8535 102.309 70.3267L102.309 70.3359L102.482 78.8876C102.482 78.8902 102.482 78.8929 102.482 78.8955C102.492 79.3687 102.049 79.5044 101.494 79.1986C100.938 78.8927 100.481 78.2612 100.471 77.7879C100.471 77.7876 100.471 77.7873 100.471 77.7869L100.471 77.7869Z" fill="url(#paint8_linear_1742_3960)"/>
<path fill-rule="evenodd" clip-rule="evenodd" d="M101.286 52.4012C101.841 52.7068 102.299 53.3379 102.309 53.8111L102.309 53.8111L102.482 62.3719C102.482 62.3748 102.482 62.3777 102.482 62.3806C102.492 62.8539 102.049 62.9896 101.494 62.6837C100.939 62.3779 100.481 61.7463 100.471 61.273C100.471 61.2729 100.471 61.2727 100.471 61.2725L100.471 61.2725L100.298 52.7128L100.298 52.7043C100.289 52.231 100.731 52.0953 101.286 52.4012Z" fill="url(#paint9_linear_1742_3960)"/>
<path fill-rule="evenodd" clip-rule="evenodd" d="M106.222 98.0776C106.231 98.5204 105.801 98.6388 105.263 98.3422C104.724 98.0455 104.28 97.4459 104.271 97.0031C104.271 96.9978 104.271 96.9925 104.271 96.9873L104.11 88.9923L104.109 88.9845C104.101 88.5416 104.53 88.4232 105.069 88.7199C105.607 89.0166 106.051 89.6161 106.06 90.0589L106.06 90.0592L106.06 90.0592L106.222 98.0777L106.222 98.0776Z" fill="url(#paint10_linear_1742_3960)"/>
<path fill-rule="evenodd" clip-rule="evenodd" d="M106.222 81.0527C106.231 81.4955 105.801 81.6139 105.263 81.3173C104.724 81.0206 104.28 80.421 104.271 79.9782C104.271 79.973 104.271 79.9678 104.271 79.9627L104.11 71.9674L104.109 71.9596C104.101 71.5168 104.53 71.3983 105.069 71.695C105.607 71.9917 106.051 72.5912 106.06 73.0341L106.06 73.0343L106.06 73.0343L106.222 81.0528L106.222 81.0527Z" fill="url(#paint11_linear_1742_3960)"/>
<path fill-rule="evenodd" clip-rule="evenodd" d="M106.22 64.5368C106.229 64.9796 105.799 65.0981 105.261 64.8014C104.722 64.5047 104.278 63.9052 104.269 63.4623C104.269 63.4563 104.269 63.4503 104.269 63.4443L104.108 55.4515L104.108 55.4437C104.099 55.0009 104.528 54.8824 105.067 55.1791C105.605 55.4758 106.049 56.0753 106.058 56.5182L106.058 56.5184L106.058 56.5185L106.22 64.5369L106.22 64.5368Z" fill="url(#paint12_linear_1742_3960)"/>
<path fill-rule="evenodd" clip-rule="evenodd" d="M110.618 101.795C110.618 101.795 110.618 101.795 110.618 101.795C110.628 102.283 110.186 102.43 109.63 102.124C109.075 101.818 108.617 101.175 108.607 100.688C108.607 100.683 108.607 100.678 108.607 100.674L108.43 91.8739L108.429 91.8605C108.419 91.373 108.862 91.2258 109.417 91.5316C109.972 91.8375 110.43 92.4806 110.44 92.9681L110.44 92.9681L110.618 101.795L110.618 101.795Z" fill="url(#paint13_linear_1742_3960)"/>
<path fill-rule="evenodd" clip-rule="evenodd" d="M109.417 74.5068C109.972 74.8126 110.43 75.4557 110.44 75.9432L110.44 75.9433L110.618 84.7563C110.618 84.7609 110.618 84.7654 110.618 84.7699C110.628 85.2574 110.186 85.4047 109.631 85.0988C109.075 84.793 108.617 84.1502 108.607 83.6627L108.607 83.6627L108.43 74.845L108.429 74.8357C108.419 74.3482 108.862 74.2009 109.417 74.5068Z" fill="url(#paint14_linear_1742_3960)"/>
<path fill-rule="evenodd" clip-rule="evenodd" d="M109.417 57.9921C109.972 58.2978 110.43 58.9406 110.44 59.4281L110.44 59.4281L110.618 68.2551L110.618 68.2551C110.618 68.2551 110.618 68.2551 110.618 68.2552C110.628 68.7427 110.186 68.8899 109.631 68.5841C109.075 68.2782 108.617 67.6351 108.607 67.1476C108.607 67.1464 108.607 67.1451 108.607 67.1439L108.43 58.331L108.429 58.321C108.419 57.8335 108.862 57.6862 109.417 57.9921Z" fill="url(#paint15_linear_1742_3960)"/>
<circle r="2.54087" transform="matrix(0.866025 -0.5 2.20305e-08 1 138.816 101.395)" fill="url(#paint16_linear_1742_3960)"/>
<circle r="2.54087" transform="matrix(0.866025 -0.5 2.20305e-08 1 138.816 84.3713)" fill="url(#paint17_linear_1742_3960)"/>
<circle r="2.54087" transform="matrix(0.866025 -0.5 2.20305e-08 1 138.816 67.8559)" fill="url(#paint18_linear_1742_3960)"/>
<circle r="2.54087" transform="matrix(0.866025 -0.5 2.20305e-08 1 144.913 98.0922)" fill="url(#paint19_linear_1742_3960)"/>
<circle r="2.54087" transform="matrix(0.866025 -0.5 2.20305e-08 1 144.913 81.0676)" fill="url(#paint20_linear_1742_3960)"/>
<circle r="2.54087" transform="matrix(0.866025 -0.5 2.20305e-08 1 144.913 64.5522)" fill="url(#paint21_linear_1742_3960)"/>
<circle r="2.54087" transform="matrix(0.866025 -0.5 2.20305e-08 1 151.011 94.789)" fill="url(#paint22_linear_1742_3960)"/>
<circle r="2.54087" transform="matrix(0.866025 -0.5 2.20305e-08 1 151.011 77.7651)" fill="url(#paint23_linear_1742_3960)"/>
<circle r="2.54087" transform="matrix(0.866025 -0.5 2.20305e-08 1 151.011 61.2499)" fill="url(#paint24_linear_1742_3960)"/>
<rect width="6.46809" height="6.46809" transform="matrix(0.866025 -0.5 2.20305e-08 1 129.771 54.2512)" fill="#9FDCF7"/>
<rect width="6.46809" height="6.46809" transform="matrix(0.866025 0.5 -2.20305e-08 1 124.166 51.0173)" fill="#C4C4C4"/>
<rect width="6.46809" height="6.46809" transform="matrix(0.866025 -0.5 0.866025 0.5 124.166 51.0173)" fill="url(#paint25_linear_1742_3960)"/>
<rect width="6.46809" height="6.46809" transform="matrix(0.866025 -0.5 2.20305e-08 1 152.639 41.5466)" fill="#9FDCF7"/>
<rect width="6.46809" height="6.46809" transform="matrix(0.866025 0.5 -2.20305e-08 1 147.033 38.3127)" fill="#C4C4C4"/>
<rect width="6.46809" height="6.46809" transform="matrix(0.866025 -0.5 0.866025 0.5 147.033 38.3127)" fill="url(#paint26_linear_1742_3960)"/>
<rect width="6.46809" height="6.46809" transform="matrix(0.866025 -0.5 2.20305e-08 1 129.771 28.5874)" fill="#9FDCF7"/>
<rect width="6.46809" height="6.46809" transform="matrix(0.866025 0.5 -2.20305e-08 1 124.166 25.3535)" fill="#C4C4C4"/>
<rect width="6.46809" height="6.46809" transform="matrix(0.866025 -0.5 0.866025 0.5 124.166 25.3535)" fill="url(#paint27_linear_1742_3960)"/>
<rect width="6.46809" height="6.46809" transform="matrix(0.866025 -0.5 2.20305e-08 1 105.887 41.8013)" fill="#9FDCF7"/>
<rect width="6.46809" height="6.46809" transform="matrix(0.866025 0.5 -2.20305e-08 1 100.281 38.5674)" fill="#C4C4C4"/>
<rect width="6.46809" height="6.46809" transform="matrix(0.866025 -0.5 0.866025 0.5 100.281 38.5674)" fill="url(#paint28_linear_1742_3960)"/>
<path fill-rule="evenodd" clip-rule="evenodd" d="M129.861 0.268555L73.6016 32.7499L73.6016 97.7125L129.861 130.194L129.861 65.2312L186.12 32.7499L129.861 0.268555ZM129.903 65.2421L186.162 32.7608L186.162 97.7234L129.903 130.205V65.2421Z" fill="url(#paint29_linear_1742_3960)" fill-opacity="0.5"/>
<defs>
<filter id="filter0_ii_1742_3960" x="34.3672" y="39.0935" width="192.27" height="114.388" filterUnits="userSpaceOnUse" color-interpolation-filters="sRGB">
<feFlood flood-opacity="0" result="BackgroundImageFix"/>
<feBlend mode="normal" in="SourceGraphic" in2="BackgroundImageFix" result="shape"/>
<feColorMatrix in="SourceAlpha" type="matrix" values="0 0 0 0 0 0 0 0 0 0 0 0 0 0 0 0 0 0 127 0" result="hardAlpha"/>
<feOffset dx="4" dy="4"/>
<feGaussianBlur stdDeviation="4"/>
<feComposite in2="hardAlpha" operator="arithmetic" k2="-1" k3="1"/>
<feColorMatrix type="matrix" values="0 0 0 0 0.4 0 0 0 0 0.4 0 0 0 0 0.4 0 0 0 0.6 0"/>
<feBlend mode="normal" in2="shape" result="effect1_innerShadow_1742_3960"/>
<feColorMatrix in="SourceAlpha" type="matrix" values="0 0 0 0 0 0 0 0 0 0 0 0 0 0 0 0 0 0 127 0" result="hardAlpha"/>
<feOffset dx="-4" dy="-4"/>
<feGaussianBlur stdDeviation="4"/>
<feComposite in2="hardAlpha" operator="arithmetic" k2="-1" k3="1"/>
<feColorMatrix type="matrix" values="0 0 0 0 0.791667 0 0 0 0 0.732292 0 0 0 0 0.732292 0 0 0 0.8 0"/>
<feBlend mode="normal" in2="effect1_innerShadow_1742_3960" result="effect2_innerShadow_1742_3960"/>
</filter>
<linearGradient id="paint0_linear_1742_3960" x1="-66.5135" y1="-70.1123" x2="-132.954" y2="100.527" gradientUnits="userSpaceOnUse">
<stop stop-color="#D39CFF"/>
<stop offset="0.549209" stop-color="#B4C5FE" stop-opacity="0.852278"/>
<stop offset="0.856527" stop-color="#93F1FE" stop-opacity="0.695417"/>
<stop offset="1" stop-color="#F0DEFF" stop-opacity="0.32"/>
</linearGradient>
<linearGradient id="paint1_linear_1742_3960" x1="3.11289" y1="-1.36189" x2="14.4234" y2="54.5383" gradientUnits="userSpaceOnUse">
<stop stop-color="#EDDFFC"/>
<stop offset="1" stop-color="#CE9FF2" stop-opacity="0.8"/>
</linearGradient>
<linearGradient id="paint2_linear_1742_3960" x1="3.11289" y1="-1.36189" x2="14.4234" y2="54.5383" gradientUnits="userSpaceOnUse">
<stop stop-color="#EDDFFC"/>
<stop offset="1" stop-color="#CE9FF2" stop-opacity="0.8"/>
</linearGradient>
<linearGradient id="paint3_linear_1742_3960" x1="3.11289" y1="-1.36189" x2="14.4234" y2="54.5383" gradientUnits="userSpaceOnUse">
<stop stop-color="#EDDFFC"/>
<stop offset="1" stop-color="#CE9FF2" stop-opacity="0.8"/>
</linearGradient>
<linearGradient id="paint4_linear_1742_3960" x1="105.701" y1="53.1607" x2="164.75" y2="53.1607" gradientUnits="userSpaceOnUse">
<stop stop-color="#D4B2F9"/>
<stop offset="0.439381" stop-color="#F0E3FC" stop-opacity="0.907292"/>
<stop offset="0.605571" stop-color="#CE9FF2" stop-opacity="0.8"/>
</linearGradient>
<linearGradient id="paint5_linear_1742_3960" x1="105.701" y1="36.1392" x2="164.75" y2="36.1392" gradientUnits="userSpaceOnUse">
<stop stop-color="#D4B2F9"/>
<stop offset="0.439381" stop-color="#F0E3FC" stop-opacity="0.907292"/>
<stop offset="0.605571" stop-color="#CE9FF2" stop-opacity="0.8"/>
</linearGradient>
<linearGradient id="paint6_linear_1742_3960" x1="105.701" y1="19.6222" x2="164.75" y2="19.6222" gradientUnits="userSpaceOnUse">
<stop stop-color="#D4B2F9"/>
<stop offset="0.439381" stop-color="#F0E3FC" stop-opacity="0.907292"/>
<stop offset="0.605571" stop-color="#CE9FF2" stop-opacity="0.8"/>
</linearGradient>
<linearGradient id="paint7_linear_1742_3960" x1="97.573" y1="85.4213" x2="103.654" y2="98.8578" gradientUnits="userSpaceOnUse">
<stop stop-color="#D39CFF"/>
<stop offset="0.549209" stop-color="#B4C5FE" stop-opacity="0.852278"/>
<stop offset="0.856527" stop-color="#93F1FE" stop-opacity="0.695417"/>
<stop offset="1" stop-color="#F0DEFF" stop-opacity="0.32"/>
</linearGradient>
<linearGradient id="paint8_linear_1742_3960" x1="97.5732" y1="68.3965" x2="103.654" y2="81.832" gradientUnits="userSpaceOnUse">
<stop stop-color="#D39CFF"/>
<stop offset="0.549209" stop-color="#B4C5FE" stop-opacity="0.852278"/>
<stop offset="0.856527" stop-color="#93F1FE" stop-opacity="0.695417"/>
<stop offset="1" stop-color="#F0DEFF" stop-opacity="0.32"/>
</linearGradient>
<linearGradient id="paint9_linear_1742_3960" x1="97.5731" y1="51.8816" x2="103.654" y2="65.3173" gradientUnits="userSpaceOnUse">
<stop stop-color="#D39CFF"/>
<stop offset="0.549209" stop-color="#B4C5FE" stop-opacity="0.852278"/>
<stop offset="0.856527" stop-color="#93F1FE" stop-opacity="0.695417"/>
<stop offset="1" stop-color="#F0DEFF" stop-opacity="0.32"/>
</linearGradient>
<linearGradient id="paint10_linear_1742_3960" x1="101.465" y1="88.1628" x2="106.836" y2="101.064" gradientUnits="userSpaceOnUse">
<stop stop-color="#D39CFF"/>
<stop offset="0.549209" stop-color="#B4C5FE" stop-opacity="0.852278"/>
<stop offset="0.856527" stop-color="#93F1FE" stop-opacity="0.695417"/>
<stop offset="1" stop-color="#F0DEFF" stop-opacity="0.32"/>
</linearGradient>
<linearGradient id="paint11_linear_1742_3960" x1="101.465" y1="71.1379" x2="106.837" y2="84.0388" gradientUnits="userSpaceOnUse">
<stop stop-color="#D39CFF"/>
<stop offset="0.549209" stop-color="#B4C5FE" stop-opacity="0.852278"/>
<stop offset="0.856527" stop-color="#93F1FE" stop-opacity="0.695417"/>
<stop offset="1" stop-color="#F0DEFF" stop-opacity="0.32"/>
</linearGradient>
<linearGradient id="paint12_linear_1742_3960" x1="101.463" y1="54.6219" x2="106.834" y2="67.5233" gradientUnits="userSpaceOnUse">
<stop stop-color="#D39CFF"/>
<stop offset="0.549209" stop-color="#B4C5FE" stop-opacity="0.852278"/>
<stop offset="0.856527" stop-color="#93F1FE" stop-opacity="0.695417"/>
<stop offset="1" stop-color="#F0DEFF" stop-opacity="0.32"/>
</linearGradient>
<linearGradient id="paint13_linear_1742_3960" x1="105.705" y1="91.0586" x2="112.243" y2="104.583" gradientUnits="userSpaceOnUse">
<stop stop-color="#D39CFF"/>
<stop offset="0.549209" stop-color="#B4C5FE" stop-opacity="0.852278"/>
<stop offset="0.856527" stop-color="#93F1FE" stop-opacity="0.695417"/>
<stop offset="1" stop-color="#F0DEFF" stop-opacity="0.32"/>
</linearGradient>
<linearGradient id="paint14_linear_1742_3960" x1="105.704" y1="74.0336" x2="112.242" y2="87.5587" gradientUnits="userSpaceOnUse">
<stop stop-color="#D39CFF"/>
<stop offset="0.549209" stop-color="#B4C5FE" stop-opacity="0.852278"/>
<stop offset="0.856527" stop-color="#93F1FE" stop-opacity="0.695417"/>
<stop offset="1" stop-color="#F0DEFF" stop-opacity="0.32"/>
</linearGradient>
<linearGradient id="paint15_linear_1742_3960" x1="105.705" y1="57.519" x2="112.243" y2="71.0435" gradientUnits="userSpaceOnUse">
<stop stop-color="#D39CFF"/>
<stop offset="0.549209" stop-color="#B4C5FE" stop-opacity="0.852278"/>
<stop offset="0.856527" stop-color="#93F1FE" stop-opacity="0.695417"/>
<stop offset="1" stop-color="#F0DEFF" stop-opacity="0.32"/>
</linearGradient>
<linearGradient id="paint16_linear_1742_3960" x1="-0.351703" y1="-0.222473" x2="6.08351" y2="1.73485" gradientUnits="userSpaceOnUse">
<stop stop-color="#A9F1DF"/>
<stop offset="1" stop-color="#FFBBBB"/>
</linearGradient>
<linearGradient id="paint17_linear_1742_3960" x1="-0.351703" y1="-0.222473" x2="6.08351" y2="1.73485" gradientUnits="userSpaceOnUse">
<stop stop-color="#A9F1DF"/>
<stop offset="1" stop-color="#FFBBBB"/>
</linearGradient>
<linearGradient id="paint18_linear_1742_3960" x1="-0.351703" y1="-0.222473" x2="6.08351" y2="1.73485" gradientUnits="userSpaceOnUse">
<stop stop-color="#A9F1DF"/>
<stop offset="1" stop-color="#FFBBBB"/>
</linearGradient>
<linearGradient id="paint19_linear_1742_3960" x1="-0.351703" y1="-0.222473" x2="6.08351" y2="1.73485" gradientUnits="userSpaceOnUse">
<stop stop-color="#A9F1DF"/>
<stop offset="1" stop-color="#FFBBBB"/>
</linearGradient>
<linearGradient id="paint20_linear_1742_3960" x1="-0.351703" y1="-0.222473" x2="6.08351" y2="1.73485" gradientUnits="userSpaceOnUse">
<stop stop-color="#A9F1DF"/>
<stop offset="1" stop-color="#FFBBBB"/>
</linearGradient>
<linearGradient id="paint21_linear_1742_3960" x1="-0.351703" y1="-0.222473" x2="6.08351" y2="1.73485" gradientUnits="userSpaceOnUse">
<stop stop-color="#A9F1DF"/>
<stop offset="1" stop-color="#FFBBBB"/>
</linearGradient>
<linearGradient id="paint22_linear_1742_3960" x1="-0.351703" y1="-0.222473" x2="6.08351" y2="1.73485" gradientUnits="userSpaceOnUse">
<stop stop-color="#A9F1DF"/>
<stop offset="1" stop-color="#FFBBBB"/>
</linearGradient>
<linearGradient id="paint23_linear_1742_3960" x1="-0.351703" y1="-0.222473" x2="6.08351" y2="1.73485" gradientUnits="userSpaceOnUse">
<stop stop-color="#A9F1DF"/>
<stop offset="1" stop-color="#FFBBBB"/>
</linearGradient>
<linearGradient id="paint24_linear_1742_3960" x1="-0.351703" y1="-0.222473" x2="6.08351" y2="1.73485" gradientUnits="userSpaceOnUse">
<stop stop-color="#A9F1DF"/>
<stop offset="1" stop-color="#FFBBBB"/>
</linearGradient>
<linearGradient id="paint25_linear_1742_3960" x1="0.460575" y1="-0.201502" x2="2.13406" y2="8.06936" gradientUnits="userSpaceOnUse">
<stop stop-color="#E1C6FD"/>
<stop offset="1" stop-color="#CE9FF2" stop-opacity="0.8"/>
</linearGradient>
<linearGradient id="paint26_linear_1742_3960" x1="0.460575" y1="-0.201502" x2="2.13406" y2="8.06936" gradientUnits="userSpaceOnUse">
<stop stop-color="#E1C6FD"/>
<stop offset="1" stop-color="#CE9FF2" stop-opacity="0.8"/>
</linearGradient>
<linearGradient id="paint27_linear_1742_3960" x1="0.460575" y1="-0.201502" x2="2.13406" y2="8.06936" gradientUnits="userSpaceOnUse">
<stop stop-color="#E1C6FD"/>
<stop offset="1" stop-color="#CE9FF2" stop-opacity="0.8"/>
</linearGradient>
<linearGradient id="paint28_linear_1742_3960" x1="0.460575" y1="-0.201502" x2="2.13406" y2="8.06936" gradientUnits="userSpaceOnUse">
<stop stop-color="#E1C6FD"/>
<stop offset="1" stop-color="#CE9FF2" stop-opacity="0.8"/>
</linearGradient>
<linearGradient id="paint29_linear_1742_3960" x1="129.882" y1="152.679" x2="108.235" y2="-22.6325" gradientUnits="userSpaceOnUse">
<stop stop-color="#E5E5E5"/>
<stop offset="0.0625" stop-color="#92FFEB" stop-opacity="0.9375"/>
<stop offset="1" stop-color="#D7F3DA" stop-opacity="0"/>
</linearGradient>
</defs>
</svg>
