<svg width="143" height="44" viewBox="0 0 143 44" fill="none" xmlns="http://www.w3.org/2000/svg">
<path fill-rule="evenodd" clip-rule="evenodd" d="M6.9769 17.519C9.01982 7.99908 17.4832 0.862305 27.6135 0.862305H116.094C126.224 0.862305 134.688 7.99909 136.73 17.5191C140.129 18.0175 142.739 20.9453 142.739 24.4824C142.739 28.3695 139.587 31.5206 135.7 31.5206C135.444 31.5206 135.19 31.5069 134.941 31.4801C131.463 38.359 124.329 43.0752 116.094 43.0752H27.6135C19.3784 43.0752 12.2448 38.359 8.76648 31.4801C8.51698 31.5069 8.26358 31.5206 8.00697 31.5206C4.11987 31.5206 0.96875 28.3695 0.96875 24.4824C0.96875 20.9452 3.57809 18.0175 6.9769 17.519ZM11.6438 30.5094C13.6824 29.2766 15.0452 27.0386 15.0452 24.4824C15.0452 21.2895 12.9191 18.5932 10.0054 17.732C11.9128 9.7759 19.0725 3.8623 27.6135 3.8623H116.094C124.635 3.8623 131.795 9.77588 133.702 17.7319C130.788 18.5931 128.662 21.2895 128.662 24.4824C128.662 27.0387 130.025 29.2766 132.064 30.5094C129.012 36.2029 123.005 40.0752 116.094 40.0752H27.6135C20.702 40.0752 14.6951 36.2029 11.6438 30.5094Z" fill="url(#paint0_linear_1292_3334)"/>
<defs>
<linearGradient id="paint0_linear_1292_3334" x1="121.467" y1="-56.6313" x2="-33.5751" y2="44.6249" gradientUnits="userSpaceOnUse">
<stop stop-color="#D39CFF"/>
<stop offset="0.549209" stop-color="#B4C5FE" stop-opacity="0.852278"/>
<stop offset="0.856527" stop-color="#93F1FE" stop-opacity="0.695417"/>
<stop offset="1" stop-color="#F0DEFF" stop-opacity="0.32"/>
</linearGradient>
</defs>
</svg>
